v 0.124453 0.006562 0.141377
v 0.123323 0.010847 0.141010
v 0.118978 0.010992 0.142080
v 0.117777 0.006057 0.143028
v 0.086765 0.006450 0.153542
v 0.085018 0.016113 0.155887
v 0.076927 0.014673 0.154050
v 0.075761 0.003514 0.151927
v 0.104024 0.005841 0.151467
v 0.104765 0.002755 0.147979
v 0.109531 0.002700 0.147112
v 0.111534 0.005778 0.150129
v 0.144018 0.010309 0.111689
v 0.143781 0.005929 0.109259
v 0.147836 0.006168 0.107324
v 0.149315 0.009816 0.108496
v 0.131326 0.006778 0.130163
v 0.131406 0.002571 0.127168
v 0.135366 0.003173 0.125407
v 0.137230 0.006259 0.127079
v 0.087280 0.020083 0.133123
v 0.073665 0.021289 0.131148
v 0.074910 0.016598 0.144810
v 0.086885 0.018805 0.146598
v 0.068903 0.008167 0.141144
v 0.067179 0.011013 0.126076
v 0.074028 0.003535 0.124712
v 0.075662 0.003630 0.138351
v 0.086753 0.003364 0.127398
v 0.087154 0.003435 0.139726
v 0.093793 0.010275 0.131263
v 0.095369 0.010513 0.144814
v 0.112320 0.010905 0.131670
v 0.107564 0.017887 0.132958
v 0.109861 0.013990 0.144423
v 0.115533 0.008099 0.142414
v 0.096899 0.017512 0.135099
v 0.101836 0.013809 0.146035
v 0.093261 0.007898 0.134164
v 0.098191 0.002887 0.130212
v 0.101582 0.002816 0.142127
v 0.096487 0.007339 0.146390
v 0.107405 0.003689 0.129215
v 0.110249 0.002744 0.140231
v 0.124206 0.017854 0.125099
v 0.113947 0.016889 0.128035
v 0.116817 0.012601 0.136958
v 0.124242 0.013084 0.135368
v 0.112354 0.005385 0.137201
v 0.110360 0.007427 0.128055
v 0.115464 0.003143 0.124906
v 0.117614 0.002524 0.134788
v 0.124718 0.003890 0.123075
v 0.124809 0.002485 0.133629
v 0.128978 0.011534 0.124753
v 0.128848 0.007880 0.134540
v 0.142654 0.011819 0.110855
v 0.139250 0.018528 0.111789
v 0.138281 0.013712 0.121223
v 0.140926 0.007766 0.120062
v 0.131646 0.017782 0.115882
v 0.132482 0.014174 0.123445
v 0.127637 0.009647 0.124754
v 0.128444 0.012152 0.118171
v 0.130497 0.004165 0.114055
v 0.129606 0.002612 0.122063
v 0.138516 0.004410 0.109986
v 0.136986 0.002653 0.119754
v 0.152249 0.019150 0.095551
v 0.151158 0.016285 0.103497
v 0.152648 0.010762 0.101809
v 0.153229 0.012460 0.092296
v 0.145831 0.019577 0.100625
v 0.145689 0.016716 0.106651
v 0.141538 0.011939 0.107105
v 0.143113 0.014046 0.101990
v 0.142604 0.005978 0.098461
v 0.141921 0.005267 0.104466
v 0.148830 0.006620 0.093881
v 0.148754 0.005239 0.102016
v 0.090519 0.021097 0.119428
v 0.073285 0.024909 0.117092
v 0.077877 0.003468 0.147462
v 0.066858 0.012880 0.111896
v 0.084330 0.003510 0.148040
v 0.089949 0.003387 0.115731
v 0.074248 0.004171 0.110351
v 0.092170 0.010319 0.125650
v 0.109856 0.011112 0.150045
v 0.109220 0.003501 0.113420
v 0.109722 0.009528 0.122596
v 0.105016 0.011075 0.150859
v 0.108481 0.020827 0.117370
v 0.125435 0.020070 0.108036
v 0.119421 0.002703 0.140230
v 0.123261 0.002574 0.139460
v 0.126933 0.003732 0.106337
v 0.129092 0.013089 0.115847
v 0.136784 0.010958 0.126780
v 0.140572 0.004630 0.095222
v 0.143590 0.014055 0.101973
v 0.133325 0.010963 0.128326
v 0.141053 0.021650 0.096509
v 0.148764 0.013073 0.108128
v 0.149393 0.005893 0.083828
v 0.154586 0.013507 0.080863
v 0.145954 0.013739 0.110125
v 0.152048 0.021894 0.085340
v 0.068803 0.030103 0.100926
v 0.086730 0.032362 0.102224
v 0.082705 0.041083 0.083491
v 0.068351 0.031415 0.080114
v 0.104052 0.029946 0.098445
v 0.100908 0.041398 0.079719
v 0.120814 0.028736 0.090487
v 0.117008 0.037976 0.071795
v 0.136519 0.027521 0.080370
v 0.131842 0.034279 0.062496
v 0.150003 0.025040 0.071261
v 0.155724 0.015442 0.066406
v 0.062985 0.014351 0.095368
v 0.064728 0.016704 0.074717
v 0.072642 0.003438 0.092260
v 0.074043 0.003709 0.071935
v 0.088889 0.002934 0.091455
v 0.089063 0.003363 0.070272
v 0.149624 0.004565 0.068657
v 0.106987 0.003261 0.087184
v 0.106414 0.004414 0.065926
v 0.123772 0.002593 0.080916
v 0.122633 0.003738 0.059881
v 0.137939 0.002597 0.074245
v 0.136512 0.003537 0.053963
v 0.078602 0.047846 0.059948
v 0.097160 0.053984 0.059692
v 0.090338 0.007022 0.045645
vn 0.5239 0.5817 0.6222
vn -0.3079 0.6222 0.7198
vn 0.6381 -0.1550 0.7542
vn -0.3941 -0.1442 0.9077
vn 0.4180 0.4572 0.7851
vn -0.5960 0.3921 0.7008
vn 0.4952 -0.3027 0.8143
vn -0.5976 -0.3227 0.7340
vn -0.2248 -0.9213 0.3174
vn 0.4051 -0.8771 0.2581
vn -0.3436 -0.1875 0.9202
vn 0.6490 -0.2653 0.7131
vn -0.4246 -0.6676 0.6116
vn 0.4591 -0.7831 0.4195
vn -0.3180 -0.0369 0.9474
vn 0.7631 -0.2542 0.5941
vn -0.4610 -0.7351 0.4972
vn 0.3710 -0.8601 0.3502
vn -0.3798 -0.0767 0.9219
vn 0.7292 -0.2852 0.6221
vn -0.4127 0.8753 0.2520
vn -0.5668 0.7507 0.3395
vn 0.4226 0.8921 0.1599
vn 0.3846 0.8849 0.2626
vn -0.9967 -0.0374 0.0719
vn -0.3653 -0.9306 -0.0236
vn -0.9512 -0.0408 0.3060
vn -0.2545 -0.9663 0.0399
vn 0.2804 -0.9596 0.0241
vn 0.3862 -0.9221 0.0240
vn 0.9950 -0.0251 -0.0969
vn 0.9579 0.1419 0.2497
vn 0.4428 0.8822 0.1603
vn 0.4683 0.8517 0.2353
vn 0.9651 0.1366 -0.2237
vn 0.9971 0.0613 -0.0452
vn -0.4103 0.8334 0.3703
vn -0.3908 0.7854 0.4799
vn -0.2315 -0.9709 0.0610
vn -0.3072 -0.9487 0.0744
vn -0.9510 -0.1847 0.2480
vn -0.8841 0.0119 0.4672
vn 0.4520 -0.8777 -0.1590
vn 0.4317 -0.8998 -0.0631
vn 0.3239 0.9135 0.2461
vn -0.4320 0.7615 0.4832
vn 0.4140 0.8289 0.3761
vn -0.5023 0.7396 0.4480
vn -0.9719 -0.1446 0.1858
vn -0.2296 -0.9732 0.0094
vn -0.9197 -0.1785 0.3498
vn -0.2016 -0.9795 0.0042
vn 0.4481 -0.8931 -0.0400
vn 0.4303 -0.9024 -0.0219
vn 0.9964 0.0705 0.0466
vn 0.9860 -0.0443 0.1605
vn 0.3936 0.8747 0.2829
vn 0.6283 0.6512 0.4256
vn 0.9913 -0.0490 0.1223
vn 0.9528 -0.2120 0.2173
vn -0.1643 0.8776 0.4503
vn -0.2361 0.8623 0.4480
vn -0.9578 0.1726 0.2298
vn -0.9776 0.2103 0.0061
vn -0.7154 -0.6964 -0.0564
vn -0.5796 -0.8135 0.0477
vn 0.4895 -0.8720 -0.0032
vn 0.3966 -0.9179 -0.0089
vn 0.7311 0.5349 0.4235
vn 0.9512 -0.2647 0.1585
vn 0.6921 0.6907 0.2097
vn 0.9749 -0.2152 0.0576
vn -0.0329 0.8792 0.4753
vn -0.2636 0.8345 0.4839
vn -0.9210 0.3764 -0.1004
vn -0.5240 -0.8444 0.1119
vn -0.9584 0.2424 0.1505
vn -0.7474 -0.6628 0.0450
vn 0.5428 -0.8396 0.0214
vn 0.4842 -0.8747 0.0203
vn 0.1178 0.9089 0.4001
vn -0.3815 0.8416 0.3824
vn -0.1936 -0.9807 -0.0263
vn -0.9819 -0.0927 0.1654
vn 0.3414 -0.9186 0.1991
vn -0.0205 -0.9993 0.0303
vn -0.3415 -0.9396 0.0227
vn -0.4640 -0.3348 0.8202
vn 0.5154 0.5111 0.6878
vn 0.0177 -0.9996 0.0197
vn 0.7292 -0.3383 0.5948
vn -0.2203 0.5788 0.7851
vn 0.1527 0.9268 0.3430
vn 0.2057 0.9250 0.3194
vn -0.2087 -0.9016 0.3790
vn 0.4874 -0.7501 0.4470
vn 0.0726 -0.9965 0.0419
vn 0.9380 0.1782 0.2973
vn 0.6433 0.4624 0.6102
vn 0.2106 -0.9749 0.0728
vn 0.9812 0.0424 0.1885
vn -0.0826 0.5959 0.7988
vn 0.2451 0.9198 0.3063
vn 0.7088 0.3557 0.6091
vn 0.4906 -0.8682 0.0738
vn 0.9921 -0.1138 0.0529
vn -0.0441 0.5708 0.8199
vn 0.5921 0.7879 0.1689
vn 0.0787 0.8926 0.4438
vn -0.1972 0.9203 0.3379
vn -0.6559 0.7046 0.2709
vn -0.8364 0.5433 0.0730
vn 0.2068 0.8760 0.4358
vn 0.1723 0.8791 0.4445
vn 0.2719 0.8848 0.3784
vn 0.3878 0.8498 0.3569
vn 0.3025 0.9133 0.2726
vn 0.4430 0.8651 0.2352
vn 0.6050 0.7913 0.0882
vn 0.9968 0.0243 -0.0755
vn -0.9863 -0.1586 0.0454
vn -0.9723 -0.1938 -0.1305
vn -0.4394 -0.8982 -0.0082
vn -0.4735 -0.8627 -0.1776
vn -0.0076 -1.0000 0.0029
vn -0.0234 -0.9929 -0.1170
vn 0.5476 -0.8353 -0.0499
vn 0.0001 -1.0000 -0.0059
vn -0.0202 -0.9952 -0.0956
vn -0.0088 -0.9999 0.0075
vn -0.0634 -0.9936 -0.0937
vn 0.0743 -0.9972 0.0121
vn 0.0554 -0.9917 -0.1162
vn -0.6083 0.7311 0.3091
vn 0.0824 0.8713 0.4838
vn -0.1385 -0.9735 -0.1823
f 2//1 3//2 1//3
f 1//3 3//2 4//4
f 6//5 7//6 5//7
f 5//7 7//6 8//8
f 10//9 11//10 9//11
f 9//11 11//10 12//12
f 14//13 15//14 13//15
f 13//15 15//14 16//16
f 18//17 19//18 17//19
f 17//19 19//18 20//20
f 22//21 23//22 21//23
f 21//23 23//22 24//24
f 26//25 27//26 25//27
f 25//27 27//26 28//28
f 27//26 29//29 28//28
f 28//28 29//29 30//30
f 21//23 24//24 31//31
f 31//31 24//24 32//32
f 34//33 35//34 33//35
f 33//35 35//34 36//36
f 37//37 38//38 34//33
f 34//33 38//38 35//34
f 40//39 41//40 39//41
f 39//41 41//40 42//42
f 44//43 41//40 43//44
f 43//44 41//40 40//39
f 45//45 46//46 48//47
f 48//47 46//46 47//48
f 50//49 51//50 49//51
f 49//51 51//50 52//52
f 54//53 52//52 53//54
f 53//54 52//52 51//50
f 45//45 48//47 55//55
f 55//55 48//47 56//56
f 58//57 59//58 57//59
f 57//59 59//58 60//60
f 58//57 61//61 59//58
f 59//58 61//61 62//62
f 63//63 64//64 66//65
f 66//65 64//64 65//66
f 67//67 68//68 65//66
f 65//66 68//68 66//65
f 70//69 71//70 69//71
f 69//71 71//70 72//72
f 69//71 73//73 70//69
f 70//69 73//73 74//74
f 76//75 77//76 75//77
f 75//77 77//76 78//78
f 79//79 80//80 77//76
f 77//76 80//80 78//78
f 23//22 7//6 24//24
f 24//24 7//6 6//5
f 21//23 81//81 22//21
f 22//21 81//81 82//82
f 28//28 83//83 25//27
f 25//27 83//83 8//8
f 22//21 82//82 26//25
f 26//25 82//82 84//84
f 85//85 83//83 30//30
f 30//30 83//83 28//28
f 29//29 27//26 86//86
f 86//86 27//26 87//87
f 6//5 5//7 24//24
f 24//24 5//7 32//32
f 86//86 88//88 29//29
f 29//29 88//88 31//31
f 35//34 89//89 36//36
f 36//36 89//89 12//12
f 90//90 91//91 43//44
f 43//44 91//91 33//35
f 38//38 92//92 35//34
f 35//34 92//92 89//89
f 34//33 93//93 37//37
f 37//37 93//93 81//81
f 41//40 10//9 42//42
f 42//42 10//9 9//11
f 39//41 37//37 88//88
f 88//88 37//37 81//81
f 11//10 10//9 44//43
f 44//43 10//9 41//40
f 86//86 90//90 40//39
f 40//39 90//90 43//44
f 47//48 3//2 48//47
f 48//47 3//2 2//1
f 46//46 45//45 93//93
f 93//93 45//45 94//94
f 52//52 95//95 49//51
f 49//51 95//95 4//4
f 50//49 46//46 91//91
f 91//91 46//46 93//93
f 96//96 95//95 54//53
f 54//53 95//95 52//52
f 51//50 90//90 53//54
f 53//54 90//90 97//97
f 48//47 2//1 56//56
f 56//56 2//1 1//3
f 97//97 98//98 53//54
f 53//54 98//98 55//55
f 59//58 99//99 60//60
f 60//60 99//99 20//20
f 100//100 101//101 67//67
f 67//67 101//101 57//59
f 59//58 62//62 99//99
f 99//99 62//62 102//102
f 61//61 58//57 94//94
f 94//94 58//57 103//103
f 66//65 18//17 63//63
f 63//63 18//17 17//19
f 64//64 61//61 98//98
f 98//98 61//61 94//94
f 68//68 19//18 66//65
f 66//65 19//18 18//17
f 65//66 97//97 67//67
f 67//67 97//97 100//100
f 70//69 104//104 71//70
f 71//70 104//104 16//16
f 79//79 105//105 72//72
f 72//72 105//105 106//106
f 70//69 74//74 104//104
f 104//104 74//74 107//107
f 73//73 69//71 103//103
f 103//103 69//71 108//108
f 78//78 14//13 75//77
f 75//77 14//13 13//15
f 76//75 73//73 101//101
f 73//73 103//103 101//101
f 80//80 15//14 78//78
f 78//78 15//14 14//13
f 77//76 100//100 79//79
f 79//79 100//100 105//105
f 1//3 4//4 96//96
f 96//96 4//4 95//95
f 83//83 85//85 8//8
f 8//8 85//85 5//7
f 92//92 9//11 89//89
f 89//89 9//11 12//12
f 13//15 16//16 107//107
f 107//107 16//16 104//104
f 17//19 20//20 102//102
f 102//102 20//20 99//99
f 23//22 22//21 25//27
f 25//27 22//21 26//25
f 32//32 30//30 31//31
f 31//31 30//30 29//29
f 36//36 44//43 33//35
f 33//35 44//43 43//44
f 42//42 38//38 39//41
f 39//41 38//38 37//37
f 49//51 47//48 50//49
f 50//49 47//48 46//46
f 55//55 56//56 53//54
f 53//54 56//56 54//53
f 57//59 60//60 67//67
f 67//67 60//60 68//68
f 63//63 62//62 64//64
f 64//64 62//62 61//61
f 72//72 71//70 79//79
f 79//79 71//70 80//80
f 75//77 74//74 76//75
f 76//75 74//74 73//73
f 7//6 23//22 8//8
f 8//8 23//22 25//27
f 84//84 87//87 26//25
f 26//25 87//87 27//26
f 5//7 85//85 32//32
f 32//32 85//85 30//30
f 31//31 88//88 21//23
f 21//23 88//88 81//81
f 12//12 11//10 36//36
f 36//36 11//10 44//43
f 33//35 91//91 34//33
f 34//33 91//91 93//93
f 92//92 38//38 9//11
f 9//11 38//38 42//42
f 86//86 40//39 88//88
f 88//88 40//39 39//41
f 4//4 3//2 49//51
f 49//51 3//2 47//48
f 90//90 51//50 91//91
f 91//91 51//50 50//49
f 1//3 96//96 56//56
f 56//56 96//96 54//53
f 55//55 98//98 45//45
f 45//45 98//98 94//94
f 60//60 20//20 68//68
f 68//68 20//20 19//18
f 57//59 101//101 58//57
f 58//57 101//101 103//103
f 17//19 102//102 63//63
f 63//63 102//102 62//62
f 97//97 65//66 98//98
f 98//98 65//66 64//64
f 71//70 16//16 80//80
f 80//80 16//16 15//14
f 106//106 108//108 72//72
f 72//72 108//108 69//71
f 13//15 107//107 75//77
f 75//77 107//107 74//74
f 101//101 100//100 76//75
f 100//100 77//76 76//75
f 110//109 111//110 109//111
f 109//111 111//110 112//112
f 110//109 113//113 111//110
f 111//110 113//113 114//114
f 113//113 115//115 114//114
f 114//114 115//115 116//116
f 115//115 117//117 116//116
f 116//116 117//117 118//118
f 117//117 119//119 118//118
f 109//111 112//112 121//121
f 121//121 112//112 122//122
f 121//121 122//122 123//123
f 123//123 122//122 124//124
f 123//123 124//124 125//125
f 125//125 124//124 126//126
f 125//125 126//126 128//128
f 128//128 126//126 129//129
f 128//128 129//129 130//130
f 130//130 129//129 131//131
f 130//130 131//131 132//132
f 132//132 131//131 133//133
f 132//132 133//133 127//127
f 111//110 114//114 134//134
f 114//114 116//116 135//135
f 111//110 134//134 112//112
f 126//126 136//136 129//129
f 84//84 121//121 87//87
f 87//87 121//121 123//123
f 123//123 125//125 87//87
f 87//87 125//125 86//86
f 86//86 125//125 90//90
f 90//90 125//125 128//128
f 90//90 128//128 97//97
f 97//97 128//128 130//130
f 97//97 130//130 100//100
f 100//100 130//130 132//132
f 100//100 132//132 105//105
f 105//105 132//132 127//127
f 105//105 127//127 106//106
f 106//106 127//127 120//120
f 120//120 119//119 106//106
f 106//106 119//119 108//108
f 119//119 117//117 108//108
f 108//108 117//117 103//103
f 117//117 115//115 103//103
f 103//103 115//115 94//94
f 115//115 113//113 94//94
f 94//94 113//113 93//93
f 93//93 113//113 81//81
f 81//81 113//113 110//109
f 81//81 110//109 82//82
f 82//82 110//109 109//111
f 82//82 109//111 84//84
f 84//84 109//111 121//121
